<?xml version="1.0" encoding="UTF-8" standalone="no"?>
<svg width="145px" height="145px" viewBox="0 0 145 145" version="1.1" xmlns="http://www.w3.org/2000/svg" xmlns:xlink="http://www.w3.org/1999/xlink" xmlns:sketch="http://www.bohemiancoding.com/sketch/ns">
    <!-- Generator: bin/sketchtool 1.4 (305) - http://www.bohemiancoding.com/sketch -->
    <title>Imported Layers Copy</title>
    <desc>Created with bin/sketchtool.</desc>
    <defs></defs>
    <g id="Homepage" stroke="none" stroke-width="1" fill="none" fill-rule="evenodd" sketch:type="MSPage">
        <g id="Landing-Page-3" sketch:type="MSArtboardGroup" transform="translate(-235.000000, -861.000000)">
            <g id="Icons" sketch:type="MSLayerGroup" transform="translate(235.000000, 860.000000)">
                <g id="Imported-Layers-Copy" sketch:type="MSShapeGroup">
                    <path d="M72.4958868,1.168 C32.6626792,1.168 0.373264151,33.4587925 0.373264151,73.2906226 C0.373264151,113.122453 32.6626792,145.411868 72.4958868,145.411868 C112.327717,145.411868 144.617132,113.122453 144.617132,73.2906226 C144.617132,33.4587925 112.327717,1.168 72.4958868,1.168" id="Fill-1" fill="#FAD8C4"></path>
                    <path d="M90.2293774,113.930962 L95.011566,113.930962 L95.011566,125.978717 L90.2293774,125.978717 L90.2293774,113.930962 Z" id="Fill-2" fill="#3F4447"></path>
                    <path d="M132.208509,48.7199245 C132.208509,36.3691509 122.196491,26.3557547 109.84434,26.3557547 C105.834849,26.3557547 102.081547,27.4245849 98.8268491,29.2716226 C95.1713396,18.4331887 84.9444528,10.6180566 72.8719057,10.6180566 C60.6588679,10.6180566 50.3217925,18.6108679 46.7792264,29.6462642 C43.3867925,27.5733396 39.4131132,26.3557547 35.1460566,26.3557547 C22.795283,26.3557547 12.7818868,36.3691509 12.7818868,48.7199245 C12.7818868,57.6768868 18.0599245,65.3832075 25.6643208,68.9533208 L27.0788679,132.116226 C27.0788679,132.485358 27.1573774,132.843472 27.1986981,133.207094 L116.718736,133.207094 C116.764189,132.826943 116.844075,132.449547 116.844075,132.062509 L118.243472,69.4395283 C126.429113,66.1173396 132.208509,58.0997358 132.208509,48.7199245" id="Fill-3" fill="#FFFFFF"></path>
                    <path d="M118.831604,135.589925 L25.0803208,135.589925 L24.7965849,133.218113 C24.7428679,132.853113 24.6974151,132.486736 24.6974151,132.116226 L23.3145472,70.4312264 C15.4236604,66.1200943 10.400434,57.7553962 10.400434,48.7199245 C10.400434,35.0758113 21.500566,23.9743019 35.1460566,23.9743019 C38.724434,23.9743019 42.2546038,24.7607736 45.5010377,26.2648491 C50.1620189,15.3740755 60.8324151,8.23660377 72.8719057,8.23660377 C84.7461132,8.23660377 95.3710566,15.2652642 100.10366,25.9838679 C103.176547,24.6629811 106.497358,23.9743019 109.84434,23.9743019 C123.48983,23.9743019 134.589962,35.0758113 134.589962,48.7199245 C134.589962,58.3063396 129.145264,66.8886604 120.590491,71.0028302 L119.224151,132.116226 C119.225528,132.452302 119.178698,132.83383 119.122226,133.215358 L118.831604,135.589925 L118.831604,135.589925 Z M29.4327736,130.825642 L114.49017,130.825642 L115.896453,67.8211321 L117.348189,67.233 C124.927792,64.1559811 129.827057,56.8890377 129.827057,48.7199245 C129.827057,37.702434 120.86183,28.7385849 109.84434,28.7385849 C106.40783,28.7385849 103.005755,29.6393774 100.004491,31.3431698 L97.493566,32.7701132 L96.5707358,30.0333019 C93.1328491,19.8449811 83.6097925,13.0008868 72.8719057,13.0008868 C61.957717,13.0008868 52.3836981,19.982717 49.0477358,30.3748868 L48.1221509,33.2576981 L45.5368491,31.6792453 C42.3895849,29.7550755 38.7960566,28.7385849 35.1460566,28.7385849 C24.128566,28.7385849 15.1633396,37.702434 15.1633396,48.7199245 C15.1633396,56.4179811 19.6824528,63.5127547 26.6766792,66.7977547 L28.012717,67.4244528 L29.4327736,130.825642 L29.4327736,130.825642 Z" id="Fill-4" fill="#FFFFFF"></path>
                    <path d="M72.4958868,133.207094 L27.1986981,133.207094 C27.1573774,132.843472 27.0788679,132.485358 27.0788679,132.116226 L25.6643208,68.9533208 C18.0599245,65.3832075 12.7818868,57.6768868 12.7818868,48.7199245 C12.7818868,36.3691509 22.795283,26.3557547 35.1460566,26.3557547 C39.4131132,26.3557547 43.3867925,27.5733396 46.7792264,29.6462642 C50.3217925,18.6108679 60.6588679,10.6180566 72.8719057,10.6180566 L72.4958868,133.207094" id="Fill-5" fill="#D5D5D0"></path>
                    <path d="M25.019717,104.292208 L117.41017,104.292208 L117.41017,109.111585 L25.019717,109.111585 L25.019717,104.292208 Z" id="Fill-6" fill="#3F4447"></path>
                    <path d="M118.831604,135.589925 L25.0803208,135.589925 L24.7965849,133.218113 C24.7428679,132.853113 24.6974151,132.486736 24.6974151,132.116226 L23.3145472,70.4312264 C15.4236604,66.1200943 10.400434,57.7553962 10.400434,48.7199245 C10.400434,35.0758113 21.500566,23.9743019 35.1460566,23.9743019 C38.724434,23.9743019 42.2546038,24.7607736 45.5010377,26.2648491 C50.1620189,15.3740755 60.8324151,8.23660377 72.8719057,8.23660377 C84.7461132,8.23660377 95.3710566,15.2652642 100.10366,25.9838679 C103.176547,24.6629811 106.497358,23.9743019 109.84434,23.9743019 C123.48983,23.9743019 134.589962,35.0758113 134.589962,48.7199245 C134.589962,58.3063396 129.145264,66.8886604 120.590491,71.0028302 L119.224151,132.116226 C119.225528,132.452302 119.178698,132.83383 119.122226,133.215358 L118.831604,135.589925 L118.831604,135.589925 Z M29.4327736,130.825642 L114.49017,130.825642 L115.896453,67.8211321 L117.348189,67.233 C124.927792,64.1559811 129.827057,56.8890377 129.827057,48.7199245 C129.827057,37.702434 120.86183,28.7385849 109.84434,28.7385849 C106.40783,28.7385849 103.005755,29.6393774 100.004491,31.3431698 L97.493566,32.7701132 L96.5707358,30.0333019 C93.1328491,19.8449811 83.6097925,13.0008868 72.8719057,13.0008868 C61.957717,13.0008868 52.3836981,19.982717 49.0477358,30.3748868 L48.1221509,33.2576981 L45.5368491,31.6792453 C42.3895849,29.7550755 38.7960566,28.7385849 35.1460566,28.7385849 C24.128566,28.7385849 15.1633396,37.702434 15.1633396,48.7199245 C15.1633396,56.4179811 19.6824528,63.5127547 26.6766792,66.7977547 L28.012717,67.4244528 L29.4327736,130.825642 L29.4327736,130.825642 Z" id="Fill-7" fill="#3F4447"></path>
                    <path d="M32.0015472,113.603151 L36.7658302,113.603151 L36.7658302,126.306528 L32.0015472,126.306528 L32.0015472,113.603151 Z" id="Fill-8" fill="#3F4447"></path>
                    <path d="M44.7049245,113.603151 L49.4692075,113.603151 L49.4692075,126.306528 L44.7049245,126.306528 L44.7049245,113.603151 Z" id="Fill-9" fill="#3F4447"></path>
                    <path d="M57.4096792,113.603151 L62.1739623,113.603151 L62.1739623,126.306528 L57.4096792,126.306528 L57.4096792,113.603151 Z" id="Fill-10" fill="#3F4447"></path>
                    <path d="M70.1130566,113.603151 L74.8773396,113.603151 L74.8773396,126.306528 L70.1130566,126.306528 L70.1130566,113.603151 Z" id="Fill-11" fill="#3F4447"></path>
                    <path d="M82.8178113,113.603151 L87.5820943,113.603151 L87.5820943,126.306528 L82.8178113,126.306528 L82.8178113,113.603151 Z" id="Fill-12" fill="#3F4447"></path>
                    <path d="M95.5211887,113.603151 L100.285472,113.603151 L100.285472,126.306528 L95.5211887,126.306528 L95.5211887,113.603151 Z" id="Fill-13" fill="#3F4447"></path>
                    <path d="M108.224566,113.603151 L112.988849,113.603151 L112.988849,126.306528 L108.224566,126.306528 L108.224566,113.603151 Z" id="Fill-14" fill="#3F4447"></path>
                </g>
            </g>
        </g>
    </g>
</svg>