<?xml version="1.0" encoding="UTF-8" standalone="no"?>
<svg width="198px" height="146px" viewBox="0 0 198 146" version="1.1" xmlns="http://www.w3.org/2000/svg" xmlns:xlink="http://www.w3.org/1999/xlink" xmlns:sketch="http://www.bohemiancoding.com/sketch/ns">
    <!-- Generator: bin/sketchtool 1.4 (305) - http://www.bohemiancoding.com/sketch -->
    <title>Imported Layers</title>
    <desc>Created with bin/sketchtool.</desc>
    <defs></defs>
    <g id="Homepage" stroke="none" stroke-width="1" fill="none" fill-rule="evenodd" sketch:type="MSPage">
        <g id="Landing-Page-3" sketch:type="MSArtboardGroup" transform="translate(-1034.000000, -860.000000)">
            <g id="Icons" sketch:type="MSLayerGroup" transform="translate(235.000000, 860.000000)">
                <g id="Imported-Layers" transform="translate(799.000000, 0.000000)" sketch:type="MSShapeGroup">
                    <path d="M99.0183019,23.705717 C97.3393019,23.705717 95.9784717,22.3448868 95.9784717,20.6658868 C95.9784717,18.9882642 97.3393019,17.627434 99.0183019,17.627434 C100.697302,17.627434 102.058132,18.9882642 102.058132,20.6658868 C102.058132,22.3448868 100.697302,23.705717 99.0183019,23.705717 M64.639434,26.3970755 C64.4507358,26.3970755 64.2620377,26.2923962 64.1807736,26.0816604 C63.3075283,23.8007547 61.5059434,21.9977925 59.2236604,21.1245472 C58.803566,20.9633962 58.803566,20.3683774 59.2236604,20.2086038 C61.5059434,19.3353585 63.3075283,17.5323962 64.1807736,15.2514906 C64.2620377,15.0407547 64.4507358,14.9360755 64.639434,14.9360755 C64.8281321,14.9360755 65.0168302,15.0407547 65.0980943,15.2514906 C65.9713396,17.5323962 67.7729245,19.3353585 70.0552075,20.2086038 C70.4753019,20.3683774 70.4753019,20.9633962 70.0552075,21.1245472 C67.7729245,21.9977925 65.9713396,23.8007547 65.0980943,26.0816604 C65.0168302,26.2923962 64.8281321,26.3970755 64.639434,26.3970755 M99.0183019,0.995830189 C93.9565094,0.995830189 89.0145472,1.51784906 84.2475094,2.50954717 C84.6180189,2.84011321 85.0491321,3.10318868 85.5229434,3.285 C85.7254151,3.36350943 85.7254151,3.65 85.5229434,3.72713208 C84.4210566,4.14998113 83.550566,5.0204717 83.127717,6.12235849 C83.0891509,6.22428302 82.9982453,6.27386792 82.9073396,6.27386792 C82.816434,6.27386792 82.7241509,6.22428302 82.6855849,6.12235849 C82.2641132,5.0204717 81.3936226,4.14998113 80.2917358,3.72713208 C80.1843019,3.68718868 80.1333396,3.58801887 80.1402264,3.49160377 C49.4650755,11.7901887 26.8956792,39.8180566 26.8956792,73.1184528 C26.8956792,112.950283 59.1864717,145.241075 99.0183019,145.241075 C138.850132,145.241075 171.140925,112.950283 171.140925,73.1184528 C171.140925,45.6732075 155.812302,21.8090943 133.247038,9.62084906 C132.412358,10.4982264 131.749849,11.5395094 131.307717,12.6951132 C131.220943,12.9223774 131.017094,13.0353208 130.813245,13.0353208 C130.609396,13.0353208 130.405547,12.9223774 130.318774,12.6951132 C129.37666,10.2351509 127.433208,8.29169811 124.973245,7.34958491 C124.520094,7.17603774 124.520094,6.53556604 124.973245,6.36201887 C125.203264,6.27386792 125.427774,6.17745283 125.648151,6.07139623 C117.408792,2.79603774 108.424283,0.995830189 99.0183019,0.995830189" id="Fill-1" fill="#FAD8C4"></path>
                    <path d="M64.639434,14.9360755 C64.4507358,14.9360755 64.2620377,15.0407547 64.1807736,15.2514906 C63.3075283,17.5323962 61.5059434,19.3353585 59.2236604,20.2086038 C58.803566,20.3683774 58.803566,20.9633962 59.2236604,21.1245472 C61.5059434,21.9977925 63.3075283,23.8007547 64.1807736,26.0816604 C64.2620377,26.2923962 64.4507358,26.3970755 64.639434,26.3970755 C64.8281321,26.3970755 65.0168302,26.2923962 65.0980943,26.0816604 C65.9713396,23.8007547 67.7729245,21.9977925 70.0552075,21.1245472 C70.4753019,20.9633962 70.4753019,20.3683774 70.0552075,20.2086038 C67.7729245,19.3353585 65.9713396,17.5323962 65.0980943,15.2514906 C65.0168302,15.0407547 64.8281321,14.9360755 64.639434,14.9360755" id="Fill-2" fill="#887C79"></path>
                    <path d="M130.813245,0.676283019 C130.609396,0.676283019 130.405547,0.789226415 130.318774,1.01511321 C129.464811,3.24643396 127.788566,5.05215094 125.648151,6.07139623 C128.259623,7.10992453 130.796717,8.29583019 133.247038,9.62084906 C134.189151,8.6305283 135.348887,7.84956604 136.653245,7.34958491 C137.106396,7.17603774 137.106396,6.53556604 136.653245,6.36201887 C134.191906,5.41990566 132.248453,3.47645283 131.307717,1.01511321 C131.220943,0.789226415 131.017094,0.676283019 130.813245,0.676283019" id="Fill-3" fill="#898888"></path>
                    <path d="M125.648151,6.07139623 C125.427774,6.17745283 125.203264,6.27386792 124.973245,6.36201887 C124.520094,6.53556604 124.520094,7.17603774 124.973245,7.34958491 C127.433208,8.29169811 129.37666,10.2351509 130.318774,12.6951132 C130.405547,12.9223774 130.609396,13.0353208 130.813245,13.0353208 C131.017094,13.0353208 131.220943,12.9223774 131.307717,12.6951132 C131.749849,11.5395094 132.412358,10.4982264 133.247038,9.62084906 C130.796717,8.29583019 128.259623,7.10992453 125.648151,6.07139623" id="Fill-4" fill="#887C79"></path>
                    <path d="M82.9073396,0.738264151 C82.816434,0.738264151 82.7241509,0.789226415 82.6855849,0.891150943 C82.2641132,1.99303774 81.3936226,2.8635283 80.2917358,3.285 C80.1953208,3.32218868 80.1443585,3.40620755 80.1402264,3.49160377 C81.4941698,3.12522642 82.8618868,2.79879245 84.2475094,2.50954717 C83.7557925,2.07154717 83.3687547,1.51922642 83.127717,0.891150943 C83.0891509,0.789226415 82.9982453,0.738264151 82.9073396,0.738264151" id="Fill-5" fill="#898888"></path>
                    <path d="M84.2475094,2.50954717 C82.8618868,2.79879245 81.4941698,3.12522642 80.1402264,3.49160377 C80.1333396,3.58801887 80.1843019,3.68718868 80.2917358,3.72713208 C81.3936226,4.14998113 82.2641132,5.0204717 82.6855849,6.12235849 C82.7241509,6.22428302 82.816434,6.27386792 82.9073396,6.27386792 C82.9982453,6.27386792 83.0891509,6.22428302 83.127717,6.12235849 C83.550566,5.0204717 84.4210566,4.14998113 85.5229434,3.72713208 C85.7254151,3.65 85.7254151,3.36350943 85.5229434,3.285 C85.0491321,3.10318868 84.6180189,2.84011321 84.2475094,2.50954717" id="Fill-6" fill="#887C79"></path>
                    <path d="M99.0183019,17.627434 C97.3393019,17.627434 95.9784717,18.9882642 95.9784717,20.6658868 C95.9784717,22.3448868 97.3393019,23.705717 99.0183019,23.705717 C100.697302,23.705717 102.058132,22.3448868 102.058132,20.6658868 C102.058132,18.9882642 100.697302,17.627434 99.0183019,17.627434" id="Fill-7" fill="#887C79"></path>
                    <path d="M35.151566,66.1627925 L36.8594906,61.8571698 C39.6210943,54.8932453 47.5050943,51.4870377 54.4690189,54.2486415 C54.677,54.331283 82.9927358,65.5622642 82.9927358,65.5622642 C85.4044906,66.5181509 80.2242453,75.4516981 67.359717,70.3485849 L62.9094717,68.5841887 C62.7676038,69.6833208 61.9163962,72.124 61.9163962,72.124 C60.536283,75.6059623 57.8738491,78.1981509 54.6866415,79.5755094" id="Fill-8" fill="#FFFFFF"></path>
                    <path d="M37.0716038,66.9244717 L38.7795283,62.6188491 C40.5659623,58.1052453 44.8963774,55.3587925 49.4719623,55.3560377 C50.881,55.3560377 52.3106981,55.6163585 53.7073396,56.1700566 C53.8120189,56.2113774 60.9426038,59.0390943 68.0470189,61.8571698 C75.1528113,64.6752453 82.2310566,67.4823019 82.2310566,67.4823019 L82.6759434,66.3625094 L81.6360377,66.9644151 C81.7544906,67.1861698 82.0189434,67.4079245 82.2310566,67.4823019 L82.6759434,66.3625094 L81.6360377,66.9644151 L82.382566,66.5319245 L81.5010566,66.5319245 C81.5010566,66.5787547 81.5093208,66.7440377 81.6360377,66.9644151 L82.382566,66.5319245 L81.5010566,66.5319245 L81.7131698,66.5319245 L81.502434,66.5112642 L81.5010566,66.5319245 L81.7131698,66.5319245 L81.502434,66.5112642 L81.4459623,66.6972075 C81.287566,67.1200566 80.6677547,67.9726415 79.5603585,68.6337736 C78.4543396,69.3045472 76.8731321,69.8458491 74.7230755,69.8472264 C72.9325094,69.8472264 70.7397547,69.4670755 68.1213962,68.4285472 L61.2001698,65.6834717 L60.8599623,68.3197358 C60.847566,68.4368113 60.7842075,68.7453396 60.6946792,69.0814151 C60.5624528,69.5910377 60.3765094,70.1956981 60.2277547,70.6584906 C60.152,70.8912642 60.0858868,71.0909811 60.0390566,71.2300943 C59.9922264,71.3692075 59.9660566,71.4422075 59.9660566,71.4422075 L61.9163962,72.124 L59.9963585,71.3623208 C58.8214717,74.3195094 56.575,76.5067547 53.8671132,77.6788868 L55.5061698,81.4721321 C59.1726981,79.8895472 62.249717,76.8924151 63.8378113,72.8856792 L63.8529623,72.8443585 L63.8681132,72.8044151 C63.8722453,72.7892642 64.0912453,72.1611887 64.3336604,71.374717 C64.4562453,70.9807925 64.5829623,70.5483019 64.6945283,70.1213208 C64.804717,69.6902075 64.9011321,69.2811321 64.9589811,68.8486415 L62.9094717,68.5841887 L62.1477925,70.5042264 L66.5980377,72.27 C69.6296038,73.472434 72.3443774,73.9793019 74.7230755,73.9793019 C78.0920943,73.9820566 80.7655472,72.9531698 82.6070755,71.5523962 C83.5299057,70.8513208 84.2502642,70.0634717 84.7681509,69.2356792 C85.2791509,68.401 85.6221132,67.5401509 85.6331321,66.5319245 C85.6331321,66.0195472 85.5298302,65.4451887 85.2116604,64.8942453 C84.9017547,64.3419245 84.349434,63.8681132 83.7544151,63.6408491 C83.7544151,63.6408491 55.4386792,52.4112453 55.2306981,52.3286038 C53.3450943,51.5806981 51.3906226,51.2239623 49.4719623,51.2239623 C43.2518113,51.2212075 37.3732453,54.9634906 34.9380755,61.0954906 L33.2315283,65.4011132 L37.0716038,66.9244717" id="Fill-9" fill="#3F4447"></path>
                    <path d="M88.7115283,47.8136226 C88.729434,46.9334906 88.1991509,46.1318679 87.3782453,45.8068113 L48.6276415,30.4368679 C47.8067358,30.1118113 46.8715094,30.3308113 46.2806226,30.9850566 C45.6883585,31.6393019 45.5657736,32.5938113 45.9748491,33.3775283 L58.2484906,56.9854528 L53.1164528,69.9229811 C52.686717,71.0083396 53.217,72.235566 54.3023585,72.6666792 C55.3890943,73.0964151 56.6163208,72.5675094 57.0460566,71.4807736 L62.176717,58.5432453 L87.2956038,49.7653396 C88.130283,49.474717 88.695,48.6951321 88.7115283,47.8136226" id="Fill-10" fill="#C1C0BC"></path>
                    <path d="M83.9637736,37.8071132 C83.039566,40.1389811 80.3991698,41.2780566 78.0686792,40.3538491 C75.7381887,39.4296415 74.5977358,36.7906226 75.5219434,34.4587547 C76.4461509,32.1282642 79.0851698,30.9878113 81.4170377,31.9120189 C83.7475283,32.8376038 84.8879811,35.4766226 83.9637736,37.8071132" id="Fill-11" fill="#A1BA56"></path>
                    <path d="M16.2307925,49.4953774 L82.1539245,75.6403962 C83.5684717,76.2009811 84.2599057,77.8028491 83.6993208,79.2173962 L70.7865849,111.775396 C70.2246226,113.189943 68.6241321,113.881377 67.2095849,113.320792 L1.28645283,87.1743962" id="Fill-12" fill="#FFFFFF"></path>
                    <path d="M15.4691132,51.4154151 L81.3922453,77.5618113 C81.6635849,77.6664906 81.8261132,77.9281887 81.8274906,78.202283 L81.7779057,78.455717 L68.8651698,111.013717 C68.7604906,111.285057 68.4987925,111.447585 68.2246981,111.448962 L67.9712642,111.399377 L2.04813208,85.2543585 L0.524773585,89.094434 L66.4479057,115.24083 C67.0263962,115.470849 67.6310566,115.581038 68.2246981,115.581038 C70.1433585,115.583792 71.9545849,114.426811 72.7066226,112.537075 L85.6193585,79.9790755 C85.8493774,79.4005849 85.959566,78.7945472 85.959566,78.202283 C85.9623208,76.2836226 84.8053396,74.4723962 82.9156038,73.7203585 L16.9924717,47.5739623 L15.4691132,51.4154151" id="Fill-13" fill="#3F4447"></path>
                    <path d="M53.4607925,107.86783 L73.0592264,115.640264 C75.4723585,116.597528 78.2931887,115.243585 79.3289623,112.633491 C80.3633585,110.022019 79.2380566,107.103396 76.8249245,106.146132 L57.2264906,98.3736981" id="Fill-14" fill="#FFFFFF"></path>
                    <path d="M52.6991132,109.787868 L72.2989245,117.561679 C73.0716226,117.86883 73.8801321,118.01483 74.6721132,118.013453 C77.5232453,118.002434 80.1319623,116.193962 81.249,113.39517 C81.6071132,112.491623 81.779283,111.552264 81.779283,110.633566 C81.779283,109.272736 81.4046415,107.951849 80.6925472,106.821038 C79.9832075,105.692981 78.9157547,104.752245 77.5866038,104.226094 L57.9881698,96.452283 L56.4648113,100.293736 L76.0632453,108.067547 C76.5370566,108.256245 76.9144528,108.579925 77.1981887,109.026189 C77.4791698,109.469698 77.6485849,110.034415 77.6472075,110.633566 C77.6472075,111.038509 77.5714528,111.457226 77.4075472,111.871811 C76.9061887,113.155509 75.7106415,113.892396 74.6721132,113.881377 C74.3814906,113.881377 74.0991321,113.830415 73.8209057,113.720226 L54.2224717,105.946415 L52.6991132,109.787868" id="Fill-15" fill="#3F4447"></path>
                    <path d="M57.1672642,98.5210755 L76.7670755,106.294887 C79.1788302,107.252151 81.9996604,105.898208 83.035434,103.286736 C84.0712075,100.676642 82.9445283,97.7580189 80.5327736,96.8007547 L60.9329623,89.0269434" id="Fill-16" fill="#FFFFFF"></path>
                    <path d="M56.4055849,100.442491 L76.0053962,108.214925 C76.7780943,108.522075 77.5866038,108.668075 78.3785849,108.668075 C81.229717,108.657057 83.838434,106.848585 84.9554717,104.049792 L85.1014717,103.682038 L85.1014717,103.286736 L83.035434,103.286736 L84.9554717,104.048415 C85.3135849,103.144868 85.4857547,102.206887 85.4857547,101.288189 C85.4857547,99.9273585 85.1111132,98.6064717 84.4003962,97.4756604 C83.6910566,96.3462264 82.6236038,95.4054906 81.2944528,94.880717 L61.6946415,87.1069057 L60.171283,90.9483585 L79.769717,98.7207925 C80.2435283,98.9108679 80.6209245,99.2331698 80.9046604,99.679434 C81.1856415,100.124321 81.3550566,100.689038 81.3536792,101.288189 C81.3536792,101.693132 81.2793019,102.111849 81.1140189,102.526434 L80.9693962,102.892811 L80.9693962,103.286736 L83.035434,103.286736 L81.1140189,102.525057 C80.6126604,103.810132 79.4171132,104.547019 78.3785849,104.536 C78.0879623,104.536 77.8069811,104.485038 77.5287547,104.374849 L57.9289434,96.6010377 L56.4055849,100.442491" id="Fill-17" fill="#3F4447"></path>
                    <path d="M60.9329623,89.0269434 L80.5327736,96.8007547 C82.9445283,97.7580189 85.7653585,96.4040755 86.8011321,93.7926038 C87.8369057,91.1825094 86.7102264,88.2638868 84.2970943,87.3066226 L64.6986604,79.5328113" id="Fill-18" fill="#FFFFFF"></path>
                    <path d="M60.171283,90.9483585 L79.769717,98.7207925 C80.5437925,99.0279434 81.3523019,99.1739434 82.144283,99.1739434 C84.9954151,99.1629245 87.6041321,97.3544528 88.7211698,94.554283 C89.079283,93.6507358 89.2514528,92.7127547 89.2514528,91.7940566 C89.2514528,90.4332264 88.8768113,89.1123396 88.164717,87.9815283 C87.4553774,86.8520943 86.3879245,85.9113585 85.0587736,85.3865849 L65.4603396,77.6127736 L63.9369811,81.4542264 L83.5354151,89.2266604 C84.0092264,89.4167358 84.3866226,89.7390377 84.6703585,90.1853019 C84.9513396,90.6301887 85.1207547,91.1949057 85.1193774,91.7940566 C85.1193774,92.199 85.045,92.617717 84.879717,93.0309245 C84.3769811,94.316 83.1828113,95.0528868 82.144283,95.0418679 C81.8536604,95.0418679 81.5726792,94.9909057 81.2944528,94.880717 L61.6946415,87.1069057 L60.171283,90.9483585" id="Fill-19" fill="#3F4447"></path>
                    <path d="M64.639434,79.681566 L84.2392453,87.4553774 C86.651,88.4112642 89.4718302,87.0586981 90.5076038,84.4472264 C91.5433774,81.8371321 90.4166981,78.9171321 88.003566,77.9612453 L68.4051321,70.187434" id="Fill-20" fill="#FFFFFF"></path>
                    <path d="M63.8777547,81.6016038 L83.477566,89.3754151 C84.2502642,89.682566 85.0587736,89.828566 85.8507547,89.828566 C88.7018868,89.8175472 91.3106038,88.0090755 92.4276415,85.2089057 C92.7857547,84.3053585 92.9579245,83.3673774 92.9579245,82.4486792 C92.9579245,81.0864717 92.5846604,79.7655849 91.872566,78.6361509 C91.1618491,77.506717 90.0957736,76.5659811 88.7652453,76.0398302 L69.1668113,68.2673962 L67.6434528,72.1088491 L87.2418868,79.881283 C87.7156981,80.0713585 88.0930943,80.3936604 88.3768302,80.8399245 C88.6578113,81.283434 88.8272264,81.8495283 88.8258491,82.4486792 C88.8258491,82.8522453 88.7514717,83.2709623 88.5861887,83.6855472 C88.0848302,84.9706226 86.889283,85.7075094 85.8507547,85.6964906 C85.5601321,85.6951132 85.2791509,85.6441509 85.0009245,85.5339623 L65.4011132,77.7615283 L63.8777547,81.6016038" id="Fill-21" fill="#3F4447"></path>
                    <path d="M162.885038,66.1627925 L161.177113,61.8571698 C158.415509,54.8932453 150.531509,51.4870377 143.567585,54.2486415 C143.359604,54.331283 115.043868,65.5622642 115.043868,65.5622642 C112.630736,66.5181509 117.812358,75.4516981 130.676887,70.3485849 L135.127132,68.5841887 C135.269,69.6833208 136.120208,72.124 136.120208,72.124 C137.500321,75.6059623 140.162755,78.1981509 143.349962,79.5755094" id="Fill-22" fill="#FFFFFF"></path>
                    <path d="M164.806453,65.4011132 L163.098528,61.0954906 C160.663358,54.9634906 154.784792,51.2212075 148.564642,51.2239623 C146.645981,51.2239623 144.691509,51.5806981 142.805906,52.3286038 C142.597925,52.4112453 114.282189,63.6408491 114.282189,63.6408491 C113.68717,63.8681132 113.134849,64.3419245 112.824943,64.8942453 C112.506774,65.4451887 112.403472,66.0195472 112.403472,66.5319245 C112.414491,67.5401509 112.757453,68.401 113.268453,69.2356792 C114.043906,70.4739245 115.278019,71.6377925 116.963906,72.523434 C118.649792,73.403566 120.787453,73.9806792 123.312151,73.9793019 C125.692226,73.9793019 128.407,73.472434 131.438566,72.27 L135.888811,70.5042264 L135.127132,68.5841887 L133.077623,68.8486415 C133.135472,69.2811321 133.231887,69.6902075 133.342075,70.1213208 C133.674019,71.3912453 134.160226,72.7768679 134.168491,72.8044151 L134.183642,72.8443585 L134.20017,72.8856792 C135.786887,76.8924151 138.863906,79.8895472 142.530434,81.4721321 C143.577226,81.9239057 144.793434,81.4418302 145.246585,80.3950377 C145.698358,79.3468679 145.216283,78.1306604 144.169491,77.6788868 C141.461604,76.5067547 139.213755,74.3195094 138.040245,71.3623208 L136.120208,72.124 L138.070547,71.4435849 L138.037491,71.3485472 C137.960358,71.1226604 137.759264,70.5248868 137.569189,69.8871698 C137.377736,69.2646038 137.198679,68.5428679 137.176642,68.3197358 L136.836434,65.6834717 L129.915208,68.4285472 C127.296849,69.4670755 125.104094,69.8472264 123.312151,69.8472264 C120.777811,69.8444717 119.029943,69.0951887 117.925302,68.2605094 C117.375736,67.8445472 116.991453,67.4010377 116.77383,67.048434 C116.665019,66.8748868 116.597528,66.7233774 116.564472,66.6255849 L116.536925,66.5236604 L116.53417,66.5112642 L116.322057,66.5319245 L116.535547,66.5319245 L116.53417,66.5112642 L116.322057,66.5319245 L116.535547,66.5319245 L115.65266,66.5319245 L116.400566,66.9644151 C116.527283,66.7440377 116.535547,66.5787547 116.535547,66.5319245 L115.65266,66.5319245 L116.400566,66.9644151 L115.36066,66.3625094 L115.805547,67.4823019 C116.01766,67.4079245 116.282113,67.1861698 116.400566,66.9644151 L115.36066,66.3625094 L115.805547,67.4823019 C115.805547,67.4823019 115.915736,67.4382264 116.123717,67.3555849 C119.23517,66.1228491 144.133679,56.2471887 144.329264,56.1700566 C145.724528,55.6163585 147.155604,55.3560377 148.564642,55.3560377 C153.140226,55.3587925 157.469264,58.1052453 159.257075,62.6188491 L160.965,66.9244717 C161.385094,67.9850377 162.586151,68.5043019 163.646717,68.0828302 C164.707283,67.6627358 165.226547,66.4616792 164.806453,65.4011132" id="Fill-23" fill="#3F4447"></path>
                    <path d="M109.325075,47.8136226 C109.305792,46.9334906 109.837453,46.1318679 110.658358,45.8068113 L149.408962,30.4368679 C150.229868,30.1118113 151.165094,30.3308113 151.755981,30.9850566 C152.348245,31.6393019 152.47083,32.5938113 152.061755,33.3775283 L139.788113,56.9854528 L144.920151,69.9229811 C145.349887,71.0083396 144.819604,72.235566 143.734245,72.6666792 C142.648887,73.0964151 141.420283,72.5675094 140.990547,71.4807736 L135.859887,58.5432453 L110.741,49.7653396 C109.906321,49.474717 109.341604,48.6951321 109.325075,47.8136226" id="Fill-24" fill="#C1C0BC"></path>
                    <path d="M114.07283,37.8071132 C114.997038,40.1389811 117.637434,41.2780566 119.967925,40.3538491 C122.298415,39.4296415 123.438868,36.7906226 122.51466,34.4587547 C121.590453,32.1282642 118.951434,30.9878113 116.619566,31.9120189 C114.289075,32.8376038 113.148623,35.4766226 114.07283,37.8071132" id="Fill-25" fill="#A1BA56"></path>
                    <path d="M181.805811,49.4953774 L115.882679,75.6403962 C114.468132,76.2009811 113.776698,77.8028491 114.337283,79.2173962 L127.250019,111.775396 C127.811981,113.189943 129.412472,113.881377 130.827019,113.320792 L196.750151,87.1743962" id="Fill-26" fill="#FFFFFF"></path>
                    <path d="M181.044132,47.5739623 L115.121,73.7203585 C113.231264,74.4723962 112.074283,76.2836226 112.077038,78.202283 C112.07566,78.7945472 112.187226,79.4005849 112.417245,79.9790755 L125.329981,112.537075 C126.082019,114.426811 127.893245,115.583792 129.811906,115.581038 C130.40417,115.581038 131.010208,115.470849 131.587321,115.24083 L197.51183,89.094434 L195.988472,85.2543585 L130.06534,111.400755 L129.811906,111.448962 C129.537811,111.447585 129.276113,111.285057 129.171434,111.013717 L116.257321,78.455717 L116.209113,78.202283 C116.210491,77.9281887 116.371642,77.6664906 116.644358,77.5618113 L182.567491,51.4154151 L181.044132,47.5739623" id="Fill-27" fill="#3F4447"></path>
                    <path d="M144.575811,107.86783 L124.976,115.640264 C122.564245,116.597528 119.743415,115.243585 118.707642,112.633491 C117.671868,110.022019 118.798547,107.103396 121.211679,106.146132 L140.810113,98.3736981" id="Fill-28" fill="#FFFFFF"></path>
                    <path d="M143.814132,105.946415 L124.214321,113.720226 C123.937472,113.830415 123.655113,113.881377 123.364491,113.881377 C122.325962,113.892396 121.130415,113.155509 120.629057,111.871811 C120.463774,111.457226 120.389396,111.038509 120.389396,110.633566 C120.388019,110.034415 120.557434,109.469698 120.838415,109.026189 C121.122151,108.579925 121.49817,108.256245 121.973358,108.067547 L141.571792,100.293736 L140.048434,96.452283 L120.45,104.226094 C119.119472,104.752245 118.053396,105.692981 117.342679,106.821038 C116.630585,107.951849 116.257321,109.272736 116.257321,110.633566 C116.257321,111.552264 116.429491,112.491623 116.787604,113.39517 C117.904642,116.193962 120.513358,118.002434 123.364491,118.013453 C124.156472,118.01483 124.964981,117.86883 125.737679,117.561679 L145.337491,109.787868 L143.814132,105.947792 L143.814132,105.946415" id="Fill-29" fill="#3F4447"></path>
                    <path d="M140.86934,98.5210755 L121.269528,106.294887 C118.857774,107.252151 116.036943,105.898208 115.00117,103.286736 C113.965396,100.676642 115.092075,97.7580189 117.50383,96.8007547 L137.103642,89.0269434" id="Fill-30" fill="#FFFFFF"></path>
                    <path d="M140.10766,96.6010377 L120.507849,104.374849 C120.229623,104.485038 119.948642,104.536 119.658019,104.536 C118.619491,104.547019 117.423943,103.810132 116.921208,102.525057 L115.00117,103.286736 L117.067208,103.286736 L117.067208,102.892811 L116.921208,102.525057 C116.757302,102.110472 116.682925,101.693132 116.682925,101.288189 C116.681547,100.689038 116.850962,100.124321 117.131943,99.679434 C117.415679,99.2345472 117.791698,98.9108679 118.265509,98.7207925 L137.865321,90.9483585 L136.341962,87.1069057 L116.742151,94.880717 C115.413,95.4054906 114.345547,96.3462264 113.636208,97.4756604 C112.924113,98.6064717 112.550849,99.9273585 112.550849,101.288189 C112.549472,102.206887 112.723019,103.146245 113.081132,104.048415 L115.00117,103.286736 L112.935132,103.286736 L112.935132,103.682038 L113.081132,104.048415 C114.19817,106.848585 116.806887,108.657057 119.658019,108.668075 C120.45,108.668075 121.258509,108.522075 122.031208,108.214925 L141.631019,100.442491 L140.10766,96.6010377" id="Fill-31" fill="#3F4447"></path>
                    <path d="M137.103642,89.0269434 L117.50383,96.8007547 C115.092075,97.7580189 112.271245,96.4040755 111.235472,93.7926038 C110.201075,91.1825094 111.326377,88.2638868 113.739509,87.3066226 L133.337943,79.5328113" id="Fill-32" fill="#FFFFFF"></path>
                    <path d="M136.341962,87.1069057 L116.742151,94.880717 C116.463925,94.9909057 116.182943,95.0418679 115.892321,95.0418679 C114.853792,95.0528868 113.658245,94.316 113.156887,93.0309245 C112.991604,92.6163396 112.917226,92.199 112.917226,91.7940566 C112.915849,91.1949057 113.085264,90.6301887 113.366245,90.1853019 C113.649981,89.7390377 114.026,89.4167358 114.501189,89.2266604 L134.099623,81.4542264 L132.576264,77.6127736 L112.97783,85.3865849 C111.648679,85.9113585 110.579849,86.8520943 109.870509,87.9815283 C109.158415,89.1123396 108.785151,90.4332264 108.785151,91.7940566 C108.785151,92.7127547 108.957321,93.6521132 109.315434,94.554283 C110.432472,97.3544528 113.041189,99.1629245 115.892321,99.1739434 C116.684302,99.1739434 117.492811,99.0279434 118.265509,98.7207925 L137.865321,90.9483585 L136.341962,87.1069057" id="Fill-33" fill="#3F4447"></path>
                    <path d="M133.39717,79.681566 L113.797358,87.4553774 C111.385604,88.4112642 108.564774,87.0586981 107.529,84.4472264 C106.493226,81.8371321 107.619906,78.9171321 110.033038,77.9612453 L129.631472,70.187434" id="Fill-34" fill="#FFFFFF"></path>
                    <path d="M132.635491,77.7615283 L113.035679,85.5339623 C112.757453,85.6441509 112.476472,85.6951132 112.185849,85.6964906 C111.147321,85.7075094 109.951774,84.9706226 109.450415,83.6855472 C109.285132,83.2709623 109.210755,82.8522453 109.210755,82.4486792 C109.209377,81.8495283 109.378792,81.283434 109.659774,80.8399245 C109.943509,80.3936604 110.319528,80.0713585 110.794717,79.881283 L130.393151,72.1074717 L128.869792,68.2673962 L109.271358,76.0398302 C107.94083,76.5659811 106.873377,77.506717 106.164038,78.6361509 C105.451943,79.7655849 105.078679,81.0864717 105.078679,82.4486792 C105.077302,83.3673774 105.250849,84.3053585 105.608962,85.2089057 C106.726,88.0090755 109.334717,89.8175472 112.185849,89.828566 C112.97783,89.828566 113.78634,89.682566 114.559038,89.3754151 L134.158849,81.6016038 L132.635491,77.7615283" id="Fill-35" fill="#3F4447"></path>
                </g>
            </g>
        </g>
    </g>
</svg>