<?xml version="1.0" encoding="UTF-8" standalone="no"?>
<svg width="97px" height="42px" viewBox="0 0 97 42" version="1.1" xmlns="http://www.w3.org/2000/svg" xmlns:xlink="http://www.w3.org/1999/xlink" xmlns:sketch="http://www.bohemiancoding.com/sketch/ns">
    <!-- Generator: bin/sketchtool 1.4 (305) - http://www.bohemiancoding.com/sketch -->
    <title>TC Logo</title>
    <desc>Created with bin/sketchtool.</desc>
    <defs></defs>
    <g id="Homepage" stroke="none" stroke-width="1" fill="none" fill-rule="evenodd" sketch:type="MSPage">
        <g id="Landing-Page-3" sketch:type="MSArtboardGroup" transform="translate(-139.000000, -29.000000)" fill="#FF5D3B">
            <g id="Main-Nav" sketch:type="MSLayerGroup">
                <g id="TC-Logo" transform="translate(140.000000, 30.000000)" sketch:type="MSShapeGroup">
                    <path d="M6.40930156,8.02811726 L10.4482052,8.02811726 L10.4482052,5.72869977 L0.0120749396,5.72869977 L0.0120749396,8.02811726 L4.13975241,8.02811726 L4.13975241,30.1243535 L6.40930156,30.1243535 L6.40930156,8.02811726" id="Fill-1"></path>
                    <path d="M16.819718,21.5846344 C17.6156214,17.5538325 18.2345894,14.2988049 18.9423311,10.8645616 L21.1531059,21.5846344 L16.819718,21.5846344 L16.819718,21.5846344 Z M25.2801711,30.1243535 L20.2390414,5.72869977 L17.6156214,5.72869977 L12.7514272,30.1243535 L15.1097502,30.1243535 L16.4364599,23.7042162 L21.536364,23.7042162 L22.9218481,30.1243535 L25.2801711,30.1243535 L25.2801711,30.1243535 Z" id="Fill-2"></path>
                    <path d="M31.5335229,10.9247136 C31.5335229,9.37192462 32.8896198,8.02811726 34.6583621,8.02811726 C36.3389427,8.02811726 37.7838135,9.31239278 37.7838135,10.9247136 L37.7838135,13.3729607 L40.0533627,13.3729607 L40.0533627,10.9247136 C40.0533627,8.05788318 37.6656525,5.72869977 34.6583621,5.72869977 C31.6516839,5.72869977 29.2339743,8.05788318 29.2339743,10.9247136 L29.2339743,14.5077864 C29.2339743,17.2251671 31.7398455,19.255451 34.5995877,19.255451 C36.2801683,19.255451 37.7538141,20.1812952 37.7538141,21.5548685 L37.7538141,25.0480235 C37.7538141,26.6014326 36.3977171,27.9446198 34.6583621,27.9446198 C32.9490065,27.9446198 31.5041357,26.6014326 31.5041357,25.0480235 L31.5041357,22.6896943 L29.2339743,22.6896943 L29.2339743,25.0480235 C29.2339743,27.9148539 31.6516839,30.2440373 34.6583621,30.2440373 C37.6068781,30.2440373 40.0533627,27.9148539 40.0533627,25.0480235 L40.0533627,21.5548685 C40.0533627,18.9274058 37.4299426,17.2251671 34.7177487,17.0161855 C33.0077809,16.9262676 31.5335229,16.0004234 31.5335229,14.5077864 L31.5335229,10.9247136" id="Fill-3"></path>
                    <path d="M50.4043925,8.02811726 L54.4432961,8.02811726 L54.4432961,5.72869977 L44.0071658,5.72869977 L44.0071658,8.02811726 L48.1348433,8.02811726 L48.1348433,30.1243535 L50.4043925,30.1243535 L50.4043925,8.02811726" id="Fill-4"></path>
                    <path d="M76.2069684,30.1243535 L78.2708071,30.1243535 L78.2708071,5.72869977 L76.0006457,5.72869977 L76.0006457,23.346405 L69.6915807,5.72869977 L67.1857095,5.72869977 L67.1857095,30.1243535 L69.4558709,30.1243535 L69.4558709,11.8505578 L76.2069684,30.1243535 Z" id="Fill-5"></path>
                    <path d="M89.4471275,30.3333351 C92.2768702,30.3333351 94.8715153,28.2131332 94.8715153,25.4064548 L94.8715153,17.1650151 L89.5946758,17.1650151 L89.5946758,19.2256851 L92.6013539,19.2256851 L92.6013539,25.4064548 C92.6013539,26.9592438 91.0683215,28.0940695 89.4471275,28.0940695 C87.530837,28.0940695 85.7327076,26.9592438 85.7327076,25.4064548 L85.7327076,10.8645616 C85.7327076,9.3421587 87.4720626,8.02811726 89.4471275,8.02811726 C91.1270959,8.02811726 92.6013539,9.3421587 92.6013539,10.8645616 L92.6013539,14.3881026 L94.8715153,14.3881026 L94.8715153,10.8645616 C94.8715153,8.02811726 92.3950313,5.72869977 89.4471275,5.72869977 C86.2335145,5.72869977 83.433159,8.02811726 83.433159,10.8645616 L83.433159,25.4064548 C83.433159,28.2131332 86.3222883,30.3333351 89.4471275,30.3333351" id="Fill-6"></path>
                    <path d="M20.2616941,40.1120606 C21.0722911,40.1120606 21.7243196,39.4838756 21.7243196,38.7112019 L21.7243196,38.244249 L20.9529056,38.244249 L20.9529056,38.7112019 C20.9529056,39.0491692 20.6351564,39.3387668 20.2616941,39.3387668 C19.8080291,39.3387668 19.4106897,39.0491692 19.4106897,38.7112019 L19.4106897,34.8782193 C19.4106897,34.5402521 19.8080291,34.2500343 20.2616941,34.2500343 C20.6351564,34.2500343 20.9529056,34.5402521 20.9529056,34.8782193 L20.9529056,35.3129258 L21.7243196,35.3129258 L21.7243196,34.8782193 C21.7243196,34.1055456 21.0722911,33.4773606 20.2616941,33.4773606 C19.3947716,33.4773606 18.6398879,34.1055456 18.6398879,34.8782193 L18.6398879,38.7112019 C18.6398879,39.4838756 19.3947716,40.1120606 20.2616941,40.1120606" id="Fill-7" stroke="#FF5D3B" stroke-width="0.8"></path>
                    <path d="M26.942997,39.3474485 C26.5058624,39.3474485 26.1085229,39.1056004 26.1085229,38.7756947 L26.1085229,34.8056649 C26.1085229,34.4757592 26.5058624,34.2339111 26.942997,34.2339111 C27.3887029,34.2339111 27.7780833,34.4757592 27.7780833,34.8056649 L27.7780833,38.7756947 C27.7780833,39.1056004 27.3887029,39.3474485 26.942997,39.3474485 L26.942997,39.3474485 Z M28.5409261,34.8056649 C28.5409261,34.0491144 27.7940014,33.4773606 26.942997,33.4773606 C26.1085229,33.4773606 25.3456801,34.0491144 25.3456801,34.8056649 L25.3456801,38.7756947 C25.3456801,39.5322453 26.1085229,40.103999 26.942997,40.103999 C27.7940014,40.103999 28.5409261,39.5322453 28.5409261,38.7756947 L28.5409261,34.8056649 L28.5409261,34.8056649 Z" id="Fill-8" stroke="#FF5D3B" stroke-width="0.8"></path>
                    <path d="M34.3644901,39.2829557 L33.005332,39.2829557 L33.005332,33.4773606 L32.2418769,33.4773606 L32.2418769,40.0556294 L34.3644901,40.0556294 L34.3644901,39.2829557" id="Fill-9" stroke="#FF5D3B" stroke-width="0.8"></path>
                    <path d="M40.0049962,39.2829557 L38.6458381,39.2829557 L38.6458381,33.4773606 L37.8823831,33.4773606 L37.8823831,40.0556294 L40.0049962,40.0556294 L40.0049962,39.2829557" id="Fill-10" stroke="#FF5D3B" stroke-width="0.8"></path>
                    <path d="M43.4996244,33.4773606 L43.4996244,40.0556294 L45.9956999,40.0556294 L45.9956999,39.2829557 L44.2624672,39.2829557 L44.2624672,37.2458504 L45.780806,37.2458504 L45.780806,36.4725565 L44.2624672,36.4725565 L44.2624672,34.2500343 L45.9956999,34.2500343 L45.9956999,33.4773606 L43.4996244,33.4773606" id="Fill-11" stroke="#FF5D3B" stroke-width="0.8"></path>
                    <path d="M51.1751943,40.1120606 C51.9857913,40.1120606 52.6378198,39.4838756 52.6378198,38.7112019 L52.6378198,38.244249 L51.867018,38.244249 L51.867018,38.7112019 C51.867018,39.0491692 51.5486567,39.3387668 51.1751943,39.3387668 C50.7221416,39.3387668 50.3248021,39.0491692 50.3248021,38.7112019 L50.3248021,34.8782193 C50.3248021,34.5402521 50.7221416,34.2500343 51.1751943,34.2500343 C51.5486567,34.2500343 51.867018,34.5402521 51.867018,34.8782193 L51.867018,35.3129258 L52.6378198,35.3129258 L52.6378198,34.8782193 C52.6378198,34.1055456 51.9857913,33.4773606 51.1751943,33.4773606 C50.3088841,33.4773606 49.5533881,34.1055456 49.5533881,34.8782193 L49.5533881,38.7112019 C49.5533881,39.4838756 50.3088841,40.1120606 51.1751943,40.1120606" id="Fill-12" stroke="#FF5D3B" stroke-width="0.8"></path>
                    <path d="M57.9048636,34.2500343 L58.9223955,34.2500343 L58.9223955,33.4773606 L56.1085709,33.4773606 L56.1085709,34.2500343 L57.1414086,34.2500343 L57.1414086,40.0556294 L57.9048636,40.0556294 L57.9048636,34.2500343" id="Fill-13" stroke="#FF5D3B" stroke-width="0.8"></path>
                    <path d="M62.551715,33.4773606 L63.31517,33.4773606 L63.31517,40.0556294 L62.551715,40.0556294 L62.551715,33.4773606 Z" id="Fill-14" stroke="#FF5D3B" stroke-width="0.8"></path>
                    <path d="M66.8728582,33.4773606 L68.0648766,40.0556294 L69.0664904,40.0556294 L70.235244,33.4773606 L69.4564831,33.4773606 L68.5662958,38.3564913 L67.6516191,33.4773606 L66.8728582,33.4773606" id="Fill-15" stroke="#FF5D3B" stroke-width="0.8"></path>
                    <path d="M73.745178,33.4773606 L73.745178,40.0556294 L76.2418657,40.0556294 L76.2418657,39.2829557 L74.508633,39.2829557 L74.508633,37.2458504 L76.0269718,37.2458504 L76.0269718,36.4725565 L74.508633,36.4725565 L74.508633,34.2500343 L76.2418657,34.2500343 L76.2418657,33.4773606 L73.745178,33.4773606" id="Fill-16" stroke="#FF5D3B" stroke-width="0.8"></path>
                    <path d="M94.8709031,0.298899469 L94.8709031,0.921503341 L0.0120749396,0.921503341 L0.0120749396,0.298899469 L94.8709031,0.298899469" id="Fill-17" stroke="#FF5D3B"></path>
                    <path d="M0.0120749396,36.4837187 L16.5429885,36.4837187 L16.5429885,37.1057025 L0.0120749396,37.1057025 L0.0120749396,36.4837187 Z M78.3406017,36.4837187 L94.8709031,36.4837187 L94.8709031,37.1057025 L78.3406017,37.1057025 L78.3406017,36.4837187 Z" id="Fill-18" stroke="#FF5D3B"></path>
                    <path d="M60.5790991,5.72869977 C60.1744128,5.72869977 59.576873,6.18883132 59.2395324,6.67748854 C58.1662873,8.23151773 57.2816101,12.5134697 58.6658697,14.2460944 C59.6546266,15.4844808 60.0482927,14.6559959 60.0244156,16.6862799 C59.9962529,19.1351471 59.8229908,21.4457268 59.5591182,23.8648281 C59.3950397,25.3717279 59.1189224,27.6258764 59.5003438,29.1104518 C59.6485043,29.6890269 59.9478864,30.1243535 60.5790991,30.1243535 C61.2096994,30.1243535 61.5090816,29.6890269 61.6578543,29.1104518 C62.0392757,27.6258764 61.7625462,25.3717279 61.5984676,23.8648281 C61.3352073,21.4457268 61.1619452,19.1351471 61.1331703,16.6862799 C61.1092932,14.6559959 61.5035715,15.4844808 62.4917161,14.2460944 C63.8759758,12.5134697 62.9919108,8.23151773 61.9180535,6.67748854 C61.5807129,6.18883132 60.9831731,5.72869977 60.5790991,5.72869977" id="Fill-19"></path>
                </g>
            </g>
        </g>
    </g>
</svg>