<?xml version="1.0" encoding="UTF-8" standalone="no"?>
<svg width="30px" height="30px" viewBox="0 0 30 30" version="1.1" xmlns="http://www.w3.org/2000/svg" xmlns:xlink="http://www.w3.org/1999/xlink" xmlns:sketch="http://www.bohemiancoding.com/sketch/ns">
    <!-- Generator: bin/sketchtool 1.4 (305) - http://www.bohemiancoding.com/sketch -->
    <title>Anchor Arrow</title>
    <desc>Created with bin/sketchtool.</desc>
    <defs></defs>
    <g id="Homepage" stroke="none" stroke-width="1" fill="none" fill-rule="evenodd" sketch:type="MSPage">
        <g id="Landing-Page-3" sketch:type="MSArtboardGroup" transform="translate(-705.000000, -537.000000)" fill="#FFFFFF">
            <g id="Anchor-Arrow" sketch:type="MSLayerGroup" transform="translate(705.000000, 537.000000)">
                <path d="M21.9443077,11.8278462 L14.7692308,19.4247692 L7.59415385,11.8278462 C7.24430769,11.4567692 6.66,11.4406154 6.28938462,11.7904615 C5.91876923,12.1403077 5.90215385,12.7246154 6.252,13.0952308 L14.0981538,21.4029231 C14.2726154,21.5875385 14.5153846,21.6923077 14.7692308,21.6923077 C15.0230769,21.6923077 15.2658462,21.5875385 15.4403077,21.4029231 L23.2864615,13.0952308 C23.6363077,12.7246154 23.6196923,12.1403077 23.2490769,11.7904615 C22.8784615,11.4406154 22.2946154,11.4572308 21.9443077,11.8278462" id="Fill-1" sketch:type="MSShapeGroup"></path>
                <path d="M14.7692308,0 C10.824,0 7.11507692,1.53646154 4.326,4.326 C1.53646154,7.11553846 0,10.8244615 0,14.7692308 C0,18.714 1.53646154,22.4224615 4.326,25.212 C7.11507692,28.002 10.824,29.5384615 14.7692308,29.5384615 C18.7144615,29.5384615 22.4229231,28.002 25.212,25.2124615 C28.002,22.4224615 29.5384615,18.714 29.5384615,14.7692308 C29.5384615,10.8244615 28.002,7.11553846 25.212,4.32646154 C22.4229231,1.53646154 18.7144615,0 14.7692308,0 L14.7692308,0 Z M23.9063077,23.9067692 C21.4661538,26.3478462 18.2210769,27.6923077 14.7692308,27.6923077 C11.3169231,27.6923077 8.07230769,26.3478462 5.63123077,23.9067692 C3.19061538,21.4661538 1.84615385,18.2210769 1.84615385,14.7692308 C1.84615385,11.3173846 3.19061538,8.07230769 5.63169231,5.63169231 C8.07230769,3.19061538 11.3169231,1.84615385 14.7692308,1.84615385 C18.2210769,1.84615385 21.4661538,3.19061538 23.9067692,5.63215385 C26.3478462,8.07276923 27.6923077,11.3173846 27.6923077,14.7692308 C27.6923077,18.2210769 26.3478462,21.4656923 23.9063077,23.9067692 L23.9063077,23.9067692 Z" id="Fill-2" sketch:type="MSShapeGroup"></path>
            </g>
        </g>
    </g>
</svg>