<?xml version="1.0" encoding="UTF-8" standalone="no"?>
<svg width="27px" height="24px" viewBox="0 0 27 24" version="1.1" xmlns="http://www.w3.org/2000/svg" xmlns:xlink="http://www.w3.org/1999/xlink" xmlns:sketch="http://www.bohemiancoding.com/sketch/ns">
    <!-- Generator: bin/sketchtool 1.4 (305) - http://www.bohemiancoding.com/sketch -->
    <title>Calendar Icon</title>
    <desc>Created with bin/sketchtool.</desc>
    <defs></defs>
    <g id="Final-All" stroke="none" stroke-width="1" fill="none" fill-rule="evenodd" sketch:type="MSPage">
        <g id="Landing-Page" sketch:type="MSArtboardGroup" transform="translate(-171.000000, -1830.000000)" fill="#444B52">
            <g id="Recent-Events" sketch:type="MSLayerGroup" transform="translate(0.000000, 1297.000000)">
                <g id="Card-1" transform="translate(139.000000, 109.500000)" sketch:type="MSShapeGroup">
                    <g id="Additional-Info" transform="translate(32.000000, 422.000000)">
                        <g id="Date" transform="translate(0.000000, 1.000000)">
                            <g id="Calendar-Icon" transform="translate(0.000000, 1.000000)">
                                <path d="M25.4642857,1.64285714 L22.1785714,1.64285714 L22.1785714,0.821428571 C22.1785714,0.368 21.8109821,0 21.3571429,0 L18.8928571,0 C18.4394286,0 18.0714286,0.368 18.0714286,0.821428571 L18.0714286,1.64285714 L8.21428571,1.64285714 L8.21428571,0.821428571 C8.21428571,0.368 7.84628571,0 7.39285714,0 L4.92857143,0 C4.47514286,0 4.10714286,0.368 4.10714286,0.821428571 L4.10714286,1.64285714 L0.821428571,1.64285714 C0.368,1.64285714 0,2.01085714 0,2.46428571 L0,22.1785714 C0,22.6324107 0.368,23 0.821428571,23 L25.4642857,23 C25.918125,23 26.2857143,22.6324107 26.2857143,22.1785714 L26.2857143,2.46428571 C26.2857143,2.01085714 25.918125,1.64285714 25.4642857,1.64285714 L25.4642857,1.64285714 Z M19.7142857,1.64285714 L20.5357143,1.64285714 L20.5357143,3.28571429 L19.7142857,3.28571429 L19.7142857,1.64285714 Z M5.75,1.64285714 L6.57142857,1.64285714 L6.57142857,3.28571429 L5.75,3.28571429 L5.75,1.64285714 Z M24.6428571,21.3571429 L1.64285714,21.3571429 L1.64285714,3.28571429 L4.10714286,3.28571429 L4.10714286,4.10714286 C4.10714286,4.56057143 4.47514286,4.92857143 4.92857143,4.92857143 L7.39285714,4.92857143 C7.84628571,4.92857143 8.21428571,4.56057143 8.21428571,4.10714286 L8.21428571,3.28571429 L18.0714286,3.28571429 L18.0714286,4.10714286 C18.0714286,4.56057143 18.4394286,4.92857143 18.8928571,4.92857143 L21.3571429,4.92857143 C21.8109821,4.92857143 22.1785714,4.56057143 22.1785714,4.10714286 L22.1785714,3.28571429 L24.6428571,3.28571429 L24.6428571,21.3571429 L24.6428571,21.3571429 Z" id="Fill-1"></path>
                                <path d="M8.21428571,8.21428571 L4.92857143,8.21428571 C4.47514286,8.21428571 4.10714286,8.581875 4.10714286,9.03571429 L4.10714286,12.3214286 C4.10714286,12.7752679 4.47514286,13.1428571 4.92857143,13.1428571 L8.21428571,13.1428571 C8.668125,13.1428571 9.03571429,12.7752679 9.03571429,12.3214286 L9.03571429,9.03571429 C9.03571429,8.581875 8.668125,8.21428571 8.21428571,8.21428571 L8.21428571,8.21428571 Z M5.75,9.85714286 L7.39285714,9.85714286 L7.39285714,11.5 L5.75,11.5 L5.75,9.85714286 Z" id="Fill-2"></path>
                                <path d="M14.7857143,8.21428571 L11.5,8.21428571 C11.0465714,8.21428571 10.6785714,8.581875 10.6785714,9.03571429 L10.6785714,12.3214286 C10.6785714,12.7752679 11.0465714,13.1428571 11.5,13.1428571 L14.7857143,13.1428571 C15.2395536,13.1428571 15.6071429,12.7752679 15.6071429,12.3214286 L15.6071429,9.03571429 C15.6071429,8.581875 15.2395536,8.21428571 14.7857143,8.21428571 L14.7857143,8.21428571 Z M12.3214286,9.85714286 L13.9642857,9.85714286 L13.9642857,11.5 L12.3214286,11.5 L12.3214286,9.85714286 Z" id="Fill-3"></path>
                                <path d="M21.3571429,8.21428571 L18.0714286,8.21428571 C17.6175893,8.21428571 17.25,8.581875 17.25,9.03571429 L17.25,12.3214286 C17.25,12.7752679 17.6175893,13.1428571 18.0714286,13.1428571 L21.3571429,13.1428571 C21.8109821,13.1428571 22.1785714,12.7752679 22.1785714,12.3214286 L22.1785714,9.03571429 C22.1785714,8.581875 21.8109821,8.21428571 21.3571429,8.21428571 L21.3571429,8.21428571 Z M18.8928571,9.85714286 L20.5357143,9.85714286 L20.5357143,11.5 L18.8928571,11.5 L18.8928571,9.85714286 Z" id="Fill-4"></path>
                                <path d="M8.21428571,14.7857143 L4.92857143,14.7857143 C4.47514286,14.7857143 4.10714286,15.1537143 4.10714286,15.6071429 L4.10714286,18.8928571 C4.10714286,19.3462857 4.47514286,19.7142857 4.92857143,19.7142857 L8.21428571,19.7142857 C8.668125,19.7142857 9.03571429,19.3462857 9.03571429,18.8928571 L9.03571429,15.6071429 C9.03571429,15.1537143 8.668125,14.7857143 8.21428571,14.7857143 L8.21428571,14.7857143 Z M5.75,16.4285714 L7.39285714,16.4285714 L7.39285714,18.0714286 L5.75,18.0714286 L5.75,16.4285714 Z" id="Fill-5"></path>
                                <path d="M14.7857143,14.7857143 L11.5,14.7857143 C11.0465714,14.7857143 10.6785714,15.1537143 10.6785714,15.6071429 L10.6785714,18.8928571 C10.6785714,19.3462857 11.0465714,19.7142857 11.5,19.7142857 L14.7857143,19.7142857 C15.2395536,19.7142857 15.6071429,19.3462857 15.6071429,18.8928571 L15.6071429,15.6071429 C15.6071429,15.1537143 15.2395536,14.7857143 14.7857143,14.7857143 L14.7857143,14.7857143 Z M12.3214286,16.4285714 L13.9642857,16.4285714 L13.9642857,18.0714286 L12.3214286,18.0714286 L12.3214286,16.4285714 Z" id="Fill-6"></path>
                                <path d="M21.3571429,14.7857143 L18.0714286,14.7857143 C17.6175893,14.7857143 17.25,15.1537143 17.25,15.6071429 L17.25,18.8928571 C17.25,19.3462857 17.6175893,19.7142857 18.0714286,19.7142857 L21.3571429,19.7142857 C21.8109821,19.7142857 22.1785714,19.3462857 22.1785714,18.8928571 L22.1785714,15.6071429 C22.1785714,15.1537143 21.8109821,14.7857143 21.3571429,14.7857143 L21.3571429,14.7857143 Z M18.8928571,16.4285714 L20.5357143,16.4285714 L20.5357143,18.0714286 L18.8928571,18.0714286 L18.8928571,16.4285714 Z" id="Fill-7"></path>
                            </g>
                        </g>
                    </g>
                </g>
            </g>
        </g>
    </g>
</svg>