<?xml version="1.0" encoding="UTF-8" standalone="no"?>
<svg width="23px" height="24px" viewBox="0 0 23 24" version="1.1" xmlns="http://www.w3.org/2000/svg" xmlns:xlink="http://www.w3.org/1999/xlink" xmlns:sketch="http://www.bohemiancoding.com/sketch/ns">
    <!-- Generator: bin/sketchtool 1.4 (305) - http://www.bohemiancoding.com/sketch -->
    <title>Clock Icon</title>
    <desc>Created with bin/sketchtool.</desc>
    <defs></defs>
    <g id="Final-All" stroke="none" stroke-width="1" fill="none" fill-rule="evenodd" sketch:type="MSPage">
        <g id="Landing-Page" sketch:type="MSArtboardGroup" transform="translate(-375.000000, -1830.000000)" fill="#444B52">
            <g id="Recent-Events" sketch:type="MSLayerGroup" transform="translate(0.000000, 1297.000000)">
                <g id="Card-1" transform="translate(139.000000, 109.500000)" sketch:type="MSShapeGroup">
                    <g id="Additional-Info" transform="translate(32.000000, 422.000000)">
                        <g id="Time-Copy" transform="translate(204.000000, 0.000000)">
                            <g id="Clock-Icon" transform="translate(0.000000, 2.000000)">
                                <path d="M11.5,0 C8.42842188,0 5.54048438,1.19635937 3.36878125,3.36878125 C1.19635938,5.54048437 0,8.42842187 0,11.5 C0,14.5715781 1.19635938,17.4595156 3.36842188,19.6312187 C5.54048438,21.8036406 8.42842188,23 11.5,23 C14.5715781,23 17.4595156,21.8036406 19.6315781,19.6312187 C21.8036406,17.4595156 23.0003594,14.5715781 23.0003594,11.5 C23.0003594,8.42842187 21.8036406,5.54048437 19.6315781,3.36878125 C17.4595156,1.19635937 14.5715781,0 11.5,0 L11.5,0 Z M18.6149063,18.6149062 C16.7145313,20.5156406 14.1877656,21.5625 11.5,21.5625 C8.81223438,21.5625 6.28546875,20.5156406 4.38509375,18.6149062 C2.48435938,16.7145312 1.4375,14.1877656 1.4375,11.5 C1.4375,8.81259375 2.48435938,6.28546875 4.38509375,4.38509375 C6.28546875,2.48435937 8.81223438,1.4375 11.5,1.4375 C14.1877656,1.4375 16.7145313,2.48435937 18.6152656,4.38509375 C20.516,6.28546875 21.5628594,8.81259375 21.5628594,11.5 C21.5628594,14.1877656 20.516,16.7145312 18.6149063,18.6149062 L18.6149063,18.6149062 Z" id="Fill-1"></path>
                                <path d="M16.8144375,12.9957187 L12.21875,11.0263437 L12.21875,3.59375 C12.21875,3.197 11.8971094,2.875 11.5,2.875 C11.10325,2.875 10.78125,3.197 10.78125,3.59375 L10.78125,11.5 C10.78125,11.7875 10.9526719,12.0473281 11.2168125,12.1605312 L16.2480625,14.3167812 C16.3404219,14.3563125 16.436375,14.3753594 16.5308906,14.3753594 C16.8097656,14.375 17.0749844,14.2118437 17.1917813,13.9394375 C17.3481094,13.5746719 17.1792031,13.1520469 16.8144375,12.9957187" id="Fill-2"></path>
                                <path d="M4.3125,10.78125 L3.59375,10.78125 C3.197,10.78125 2.875,11.10325 2.875,11.5 C2.875,11.8971094 3.197,12.21875 3.59375,12.21875 L4.3125,12.21875 C4.70925,12.21875 5.03125,11.8971094 5.03125,11.5 C5.03125,11.10325 4.70925,10.78125 4.3125,10.78125" id="Fill-3"></path>
                                <path d="M17.96875,11.5 C17.96875,11.8971094 18.29075,12.21875 18.6875,12.21875 L19.40625,12.21875 C19.8033594,12.21875 20.125,11.8971094 20.125,11.5 C20.125,11.10325 19.8033594,10.78125 19.40625,10.78125 L18.6875,10.78125 C18.29075,10.78125 17.96875,11.10325 17.96875,11.5" id="Fill-4"></path>
                                <path d="M11.5,17.96875 C11.10325,17.96875 10.78125,18.29075 10.78125,18.6875 L10.78125,19.40625 C10.78125,19.8033594 11.10325,20.125 11.5,20.125 C11.8971094,20.125 12.21875,19.8033594 12.21875,19.40625 L12.21875,18.6875 C12.21875,18.29075 11.8971094,17.96875 11.5,17.96875" id="Fill-5"></path>
                            </g>
                        </g>
                    </g>
                </g>
            </g>
        </g>
    </g>
</svg>