<?xml version="1.0" encoding="UTF-8" standalone="no"?>
<svg width="148px" height="146px" viewBox="0 0 148 146" version="1.1" xmlns="http://www.w3.org/2000/svg" xmlns:xlink="http://www.w3.org/1999/xlink" xmlns:sketch="http://www.bohemiancoding.com/sketch/ns">
    <!-- Generator: bin/sketchtool 1.4 (305) - http://www.bohemiancoding.com/sketch -->
    <title>Imported Layers Copy 2</title>
    <desc>Created with bin/sketchtool.</desc>
    <defs></defs>
    <g id="Homepage" stroke="none" stroke-width="1" fill="none" fill-rule="evenodd" sketch:type="MSPage">
        <g id="Landing-Page-3" sketch:type="MSArtboardGroup" transform="translate(-646.000000, -860.000000)">
            <g id="Icons" sketch:type="MSLayerGroup" transform="translate(235.000000, 860.000000)">
                <g id="Imported-Layers-Copy-2" transform="translate(411.000000, 0.000000)" sketch:type="MSShapeGroup">
                    <path d="M16.2239057,116.144377 C29.3749245,133.742887 50.3727547,145.135019 74.0330189,145.135019 C97.693283,145.135019 118.691113,133.744264 131.842132,116.144377 L74.0330189,127.232113 L74.0330189,122.111094 L74.0330189,127.232113 L16.2239057,116.144377 M74.0330189,0.889773585 C43.8137736,0.889773585 17.9359623,19.4744717 7.20496226,45.8384906 L74.0330189,58.6561887 L140.861075,45.8384906 C130.130075,19.4744717 104.252264,0.889773585 74.0330189,0.889773585" id="Fill-1" fill="#FAD8C4"></path>
                    <path d="M74.0330189,127.232113 L2.22030189,113.458528 L2.22030189,51.4567358 L74.0330189,65.2303208 L74.0330189,127.232113" id="Fill-2" fill="#3F4447"></path>
                    <path d="M74.0330189,120.006491 L2.22030189,106.232906 L2.22030189,46.9858302 L74.0330189,60.7594151 L74.0330189,120.006491" id="Fill-3" fill="#FFFFFF"></path>
                    <path d="M74.0330189,120.006491 L74.4228113,117.977642 L4.28633962,104.526358 L4.28633962,49.4857358 L71.9669811,62.4673396 L71.9669811,120.006491 L74.0330189,120.006491 L74.4228113,117.977642 L74.0330189,120.006491 L76.0990566,120.006491 L76.0990566,59.0514906 L0.154264151,44.4859245 L0.154264151,107.94083 L76.0990566,122.506396 L76.0990566,120.006491 L74.0330189,120.006491" id="Fill-4" fill="#3F4447"></path>
                    <path d="M74.0330189,127.232113 L145.845736,113.458528 L145.845736,51.4567358 L74.0330189,65.2303208 L74.0330189,127.232113" id="Fill-5" fill="#3F4447"></path>
                    <path d="M74.0330189,120.006491 L145.845736,106.232906 L145.845736,46.9858302 L74.0330189,60.7594151 L74.0330189,120.006491" id="Fill-6" fill="#FFFFFF"></path>
                    <path d="M74.0330189,120.006491 L74.4228113,122.03534 L147.911774,107.94083 L147.911774,44.4859245 L71.9669811,59.0514906 L71.9669811,122.506396 L74.4228113,122.03534 L74.0330189,120.006491 L76.0990566,120.006491 L76.0990566,62.4673396 L143.779698,49.4857358 L143.779698,104.526358 L73.6432264,117.977642 L74.0330189,120.006491 L76.0990566,120.006491 L74.0330189,120.006491" id="Fill-7" fill="#3F4447"></path>
                    <path d="M17.2982453,61.3062264 L17.2982453,63.9962075 L58.9550755,71.9848868 L58.9550755,69.296283 L17.2982453,61.3062264" id="Fill-8" fill="#898889"></path>
                    <path d="M17.2982453,69.5235472 L17.2982453,72.2121509 L58.9550755,80.2022075 L58.9550755,77.5136038 L17.2982453,69.5235472" id="Fill-9" fill="#898889"></path>
                    <path d="M17.2982453,77.6169057 L17.2982453,80.3068868 L58.9550755,88.2969434 L58.9550755,85.6069623 L17.2982453,77.6169057" id="Fill-10" fill="#898889"></path>
                    <path d="M130.897264,61.1974151 L89.240434,69.1874717 L89.240434,71.8760755 L130.897264,63.8873962 L130.897264,61.1974151" id="Fill-11" fill="#898889"></path>
                    <path d="M130.897264,69.4147358 L89.240434,77.4047925 L89.240434,80.0933962 L130.897264,72.1033396 L130.897264,69.4147358" id="Fill-12" fill="#898889"></path>
                    <path d="M130.897264,77.5094717 L89.240434,85.4995283 L89.240434,88.1881321 L130.897264,80.1980755 L130.897264,77.5094717" id="Fill-13" fill="#898889"></path>
                    <path d="M52.1908679,28.9892642 C52.1908679,23.3668868 48.3838491,18.7913019 43.7049623,18.7913019 C39.0260755,18.7913019 35.220434,23.3668868 35.220434,28.9892642 C35.220434,33.8361887 38.0509057,37.8966415 41.829,38.9269057 L38.3429057,79.5231698 C38.0082075,82.2269245 38.4765094,84.388 39.6982264,85.7736226 C40.3593585,86.524283 41.5796981,87.4181887 43.6416038,87.4181887 C45.7021321,87.4181887 46.9238491,86.524283 47.5849811,85.7736226 C48.8122075,84.3824906 49.2791321,82.2090189 48.9430566,79.5562264 L45.4569623,38.9654717 C49.2984151,37.9930566 52.1908679,33.8899057 52.1908679,28.9892642 L52.1908679,28.9892642 Z M45.0396226,83.5299057 C44.8509245,83.7420189 44.5038302,84.0243774 43.6416038,84.0243774 C42.7793774,84.0243774 42.4309057,83.7420189 42.2449623,83.5299057 C41.6967736,82.9073396 41.502566,81.5892075 41.7146792,79.9143396 L41.721566,79.8468491 L43.6416038,57.4868113 L45.5685283,79.9143396 C45.7806415,81.5892075 45.5878113,82.9073396 45.0396226,83.5299057 L45.0396226,83.5299057 Z M43.7049623,35.7920377 C40.8979057,35.7920377 38.6142453,32.7398113 38.6142453,28.9892642 C38.6142453,25.238717 40.8979057,22.1864906 43.7049623,22.1864906 C46.5133962,22.1864906 48.7970566,25.238717 48.7970566,28.9892642 C48.7970566,32.7398113 46.5133962,35.7920377 43.7049623,35.7920377 L43.7049623,35.7920377 Z" id="Fill-14" fill="#E15841"></path>
                    <path d="M78.509434,19.2830189 L78.509434,27.5485472 C78.509434,30.5250189 77.1320755,33.1296038 74.3773585,34.1157925 L74.3773585,19.2830189 L71.6226415,19.2830189 L71.6226415,34.1350755 C68.8679245,33.1791887 67.490566,30.6159245 67.490566,27.6022642 L67.490566,19.2830189 L64.7358491,19.2830189 L64.7358491,27.6022642 C64.7358491,32.5524906 67.9079057,36.699717 71.6873774,37.7506415 L68.3693208,79.3358491 C68.0332453,82.1043396 68.585566,84.3163774 69.8086604,85.7350566 C70.4697925,86.5036226 71.7328302,87.4181887 73.7947358,87.4181887 C75.8552642,87.4181887 77.0976415,86.5036226 77.7587736,85.7350566 C78.986,84.3094906 79.4639434,82.0850566 79.1264906,79.370283 L75.0839434,37.7878302 C78.9253962,36.7906226 81.2641509,32.5800377 81.2641509,27.5485472 L81.2641509,19.2830189 L78.509434,19.2830189 L78.509434,19.2830189 Z M75.2340755,83.4376226 C75.0467547,83.6552453 74.698283,83.9431132 73.837434,83.9431132 C72.9752075,83.9431132 72.6267358,83.6552453 72.4394151,83.4376226 C71.8912264,82.801283 71.6983962,81.4514717 71.9105094,79.735283 L71.9173962,79.6664151 L73.837434,56.7774717 L75.7629811,79.735283 C75.9750943,81.4514717 75.7822642,82.7999057 75.2340755,83.4376226 L75.2340755,83.4376226 Z" id="Fill-15" fill="#E15841"></path>
                    <path d="M109.962792,81.7228113 L108.811321,57.4771698 L108.811321,20.4895849 C108.811321,19.5516038 108.110245,18.7913019 107.173642,18.7913019 C101.967226,18.7913019 97.7924528,23.0266792 97.7924528,28.231717 L97.7924528,50.4884528 C97.7924528,54.8381509 100.825396,58.4991698 104.821113,59.5886604 L99.4411509,81.5919623 L99.4535472,81.6622075 C99.1105849,83.6827925 99.591283,85.2956792 100.818509,86.3300755 C101.479642,86.8865283 102.706868,87.5504151 104.768774,87.5504151 C106.829302,87.5504151 107.994547,86.8865283 108.657057,86.3300755 C109.871887,85.3066981 110.287849,83.7144717 109.962792,81.7228113 L109.962792,81.7228113 Z M100.54717,50.4884528 L100.54717,28.231717 C100.54717,25.4866415 101.924528,23.1630377 104.679245,22.4289057 L104.679245,56.2926415 C101.924528,55.5571321 100.54717,53.2335283 100.54717,50.4884528 L100.54717,50.4884528 Z M106.172302,84.6620943 C105.984981,84.8204906 105.636509,85.0298491 104.77566,85.0298491 C103.913434,85.0298491 103.564962,84.8204906 103.377642,84.6620943 C102.834962,84.2061887 102.640755,83.2406604 102.843226,82.0120566 L106.128226,68.712283 L106.688811,81.8605472 L106.701208,81.9776226 C106.914698,83.2227547 106.720491,84.2006792 106.172302,84.6620943 L106.172302,84.6620943 Z" id="Fill-16" fill="#E15841"></path>
                </g>
            </g>
        </g>
    </g>
</svg>