<?xml version="1.0" encoding="UTF-8" standalone="no"?>
<svg width="39px" height="40px" viewBox="0 0 39 40" version="1.1" xmlns="http://www.w3.org/2000/svg" xmlns:xlink="http://www.w3.org/1999/xlink" xmlns:sketch="http://www.bohemiancoding.com/sketch/ns">
    <!-- Generator: bin/sketchtool 1.4 (305) - http://www.bohemiancoding.com/sketch -->
    <title>Fill 7</title>
    <desc>Created with bin/sketchtool.</desc>
    <defs></defs>
    <g id="Homepage" stroke="none" stroke-width="1" fill="none" fill-rule="evenodd" sketch:type="MSPage">
        <g id="Landing-Page-3" sketch:type="MSArtboardGroup" transform="translate(-1260.000000, -3581.000000)" fill="#FFFFFF">
            <g id="Footer-Copy" sketch:type="MSLayerGroup" transform="translate(0.000000, 3409.000000)">
                <g id="Social-Icons" transform="translate(1053.000000, 172.838636)" sketch:type="MSShapeGroup">
                    <g id="Imported-Layers">
                        <path d="M226.5,39 C237.268875,39 246,30.268875 246,19.5 C246,8.72990625 237.268875,0 226.5,0 C215.729906,0 207,8.72990625 207,19.5 C207,30.268875 215.729906,39 226.5,39 L226.5,39 Z M216.862125,25.8557812 L224.251406,20.2982813 C224.251406,20.2982813 225.471375,21.61575 226.563375,21.61575 C227.656594,21.61575 228.780281,20.2982813 228.780281,20.2982813 L235.944094,25.8557812 L216.862125,25.8557812 L216.862125,25.8557812 Z M236.586375,25.4060625 L229.165406,20.041125 L236.586375,13.77675 L236.586375,25.4060625 L236.586375,25.4060625 Z M217.569,11.9254687 L235.429781,11.9254687 C236.393812,11.9254687 236.393812,12.441 236.393812,12.441 L227.559094,19.2818438 C227.303156,19.5402188 227.013094,19.6035938 226.435406,19.6035938 C225.8565,19.6035938 225.406781,19.1209687 225.406781,19.1209687 L216.732937,12.2789063 C217.005937,12.007125 217.569,11.9254687 217.569,11.9254687 L217.569,11.9254687 Z M216.412406,13.5512812 L223.768781,19.9131563 L216.412406,25.4060625 L216.412406,13.5512812 L216.412406,13.5512812 Z" id="Fill-7"></path>
                    </g>
                </g>
            </g>
        </g>
    </g>
</svg>