<?xml version="1.0" encoding="UTF-8" standalone="no"?>
<svg width="39px" height="40px" viewBox="0 0 39 40" version="1.1" xmlns="http://www.w3.org/2000/svg" xmlns:xlink="http://www.w3.org/1999/xlink" xmlns:sketch="http://www.bohemiancoding.com/sketch/ns">
    <!-- Generator: bin/sketchtool 1.4 (305) - http://www.bohemiancoding.com/sketch -->
    <title>Fill 5</title>
    <desc>Created with bin/sketchtool.</desc>
    <defs></defs>
    <g id="Homepage" stroke="none" stroke-width="1" fill="none" fill-rule="evenodd" sketch:type="MSPage">
        <g id="Landing-Page-3" sketch:type="MSArtboardGroup" transform="translate(-1191.000000, -3581.000000)" fill="#FFFFFF">
            <g id="Footer-Copy" sketch:type="MSLayerGroup" transform="translate(0.000000, 3409.000000)">
                <g id="Social-Icons" transform="translate(1053.000000, 172.838636)" sketch:type="MSShapeGroup">
                    <g id="Imported-Layers">
                        <path d="M157.5,39 C168.268875,39 177,30.268875 177,19.5 C177,8.72990625 168.268875,0 157.5,0 C146.731125,0 138,8.72990625 138,19.5 C138,30.268875 146.731125,39 157.5,39 L157.5,39 Z M151.643906,16.482375 L155.112469,16.482375 L155.112469,13.2685312 C155.112469,13.2685312 154.966219,11.1674062 156.561563,9.57328125 C158.154469,7.97915625 160.300688,8.1315 163.356094,8.39596875 L163.356094,11.9839687 L161.096531,11.9839687 C161.096531,11.9839687 160.148344,11.9644687 159.702281,12.4775625 C159.256219,12.9894375 159.30375,13.7206875 159.30375,13.9010625 L159.30375,16.482375 L163.222031,16.482375 L162.719906,20.4786562 L159.28425,20.4786562 L159.28425,30.771 L155.127094,30.771 L155.127094,20.4591562 L151.643906,20.4591562 L151.643906,16.482375 L151.643906,16.482375 Z" id="Fill-5"></path>
                    </g>
                </g>
            </g>
        </g>
    </g>
</svg>