<?xml version="1.0" encoding="UTF-8" standalone="no"?>
<svg width="38px" height="39px" viewBox="0 0 38 39" version="1.1" xmlns="http://www.w3.org/2000/svg" xmlns:xlink="http://www.w3.org/1999/xlink" xmlns:sketch="http://www.bohemiancoding.com/sketch/ns">
    <!-- Generator: bin/sketchtool 1.4 (305) - http://www.bohemiancoding.com/sketch -->
    <title>Group</title>
    <desc>Created with bin/sketchtool.</desc>
    <defs></defs>
    <g id="Homepage" stroke="none" stroke-width="1" fill="none" fill-rule="evenodd" sketch:type="MSPage">
        <g id="Landing-Page-3" sketch:type="MSArtboardGroup" transform="translate(-1053.000000, -3582.000000)" fill="#FFFFFF">
            <g id="Footer-Copy" sketch:type="MSLayerGroup" transform="translate(0.000000, 3409.000000)">
                <g id="Social-Icons" transform="translate(1053.000000, 172.838636)" sketch:type="MSShapeGroup">
                    <g id="Imported-Layers">
                        <g id="Group" transform="translate(0.000000, 1.000000)">
                            <path d="M23.8833636,15.0041818 L25.4232727,15.0041818 C25.9515455,15.0041818 26.3805455,14.5751818 26.3805455,14.0457273 L26.3805455,12.507 C26.3805455,11.9775455 25.9515455,11.5485455 25.4232727,11.5485455 L23.8833636,11.5485455 C23.3550909,11.5485455 22.9249091,11.9775455 22.9249091,12.507 L22.9249091,14.0457273 C22.9249091,14.5751818 23.3550909,15.0041818 23.8833636,15.0041818" id="Fill-1"></path>
                            <path d="M19.0308182,22.7947273 C21.1805455,22.7947273 22.9249091,21.0503636 22.9249091,18.8994545 C22.9249091,18.2518182 22.7665455,17.6408182 22.4864545,17.1030909 C22.4060909,16.9494545 22.3162727,16.8005455 22.2158182,16.6599091 C22.2146364,16.6563636 22.2110909,16.6528182 22.2087273,16.6492727 C22.1378182,16.5488182 22.061,16.4507273 21.9806364,16.3573636 C21.9747273,16.3502727 21.97,16.3443636 21.9629091,16.3384545 C21.8860909,16.2486364 21.8033636,16.1635455 21.7170909,16.0808182 C21.7088182,16.0725455 21.7005455,16.0642727 21.6910909,16.056 C21.6650909,16.0311818 21.6379091,16.0063636 21.6107273,15.9827273 C21.6000909,15.9732727 21.5906364,15.965 21.58,15.9567273 C21.5327273,15.9141818 21.4830909,15.874 21.4346364,15.8361818 C21.4204545,15.8243636 21.4074545,15.8149091 21.3932727,15.8042727 C21.3684545,15.7841818 21.3424545,15.7652727 21.3176364,15.7463636 C21.2987273,15.7333636 21.281,15.7203636 21.2632727,15.7085455 C21.2313636,15.6860909 21.1982727,15.6636364 21.1651818,15.6411818 C21.1356364,15.6210909 21.1049091,15.6021818 21.0741818,15.5832727 C21.0505455,15.5679091 21.0269091,15.5549091 21.0032727,15.5407273 C20.9796364,15.5265455 20.9548182,15.5123636 20.93,15.4993636 C20.9075455,15.4863636 20.8850909,15.4745455 20.8626364,15.4615455 C20.8189091,15.4390909 20.7763636,15.4166364 20.7314545,15.3953636 C20.7137273,15.3859091 20.6948182,15.3764545 20.6770909,15.3681818 C20.6428182,15.354 20.6120909,15.3386364 20.5801818,15.3256364 C20.5589091,15.3161818 20.5376364,15.3079091 20.5175455,15.2984545 C20.4785455,15.2819091 20.4383636,15.2665455 20.3981818,15.2523636 C20.3816364,15.2452727 20.3639091,15.2393636 20.3485455,15.2334545 C20.3036364,15.2169091 20.2587273,15.2015455 20.2126364,15.1873636 C20.1949091,15.1814545 20.176,15.1767273 20.1570909,15.1708182 C20.1169091,15.1578182 20.0767273,15.146 20.0341818,15.1353636 C20.02,15.1318182 20.007,15.1282727 19.994,15.1247273 C19.9396364,15.1105455 19.8852727,15.0987273 19.8320909,15.0869091 C19.8155455,15.0833636 19.8001818,15.0798182 19.7848182,15.0774545 C19.7410909,15.0691818 19.6973636,15.0609091 19.6524545,15.0538182 C19.6382727,15.0514545 19.6229091,15.0490909 19.6063636,15.0467273 C19.5508182,15.0384545 19.4940909,15.0313636 19.4361818,15.0254545 C19.4255455,15.0242727 19.4149091,15.0230909 19.4042727,15.0219091 C19.3558182,15.0171818 19.3061818,15.0136364 19.2565455,15.0112727 C19.2411818,15.0100909 19.2258182,15.0089091 19.2092727,15.0077273 C19.149,15.0053636 19.0899091,15.0041818 19.0308182,15.0041818 C18.9705455,15.0041818 18.9102727,15.0053636 18.8523636,15.0077273 C18.8358182,15.0089091 18.8192727,15.0100909 18.8027273,15.0112727 C18.7542727,15.0136364 18.7046364,15.0171818 18.655,15.0219091 C18.6443636,15.0230909 18.6349091,15.0242727 18.6242727,15.0254545 C18.5663636,15.0313636 18.5096364,15.0384545 18.4529091,15.0467273 C18.4375455,15.0490909 18.4221818,15.0514545 18.408,15.0538182 C18.3630909,15.0609091 18.3193636,15.0691818 18.2756364,15.0774545 C18.2602727,15.0798182 18.2449091,15.0833636 18.2295455,15.0869091 C18.174,15.0987273 18.1208182,15.1105455 18.0676364,15.1247273 C18.0522727,15.1282727 18.0392727,15.1318182 18.0250909,15.1353636 C17.9849091,15.146 17.9435455,15.1578182 17.9021818,15.1708182 C17.8844545,15.1767273 17.8655455,15.1814545 17.8478182,15.1873636 C17.8017273,15.2015455 17.7568182,15.2169091 17.7119091,15.2334545 C17.6953636,15.2393636 17.6788182,15.2452727 17.6622727,15.2523636 C17.6220909,15.2665455 17.5819091,15.2819091 17.5417273,15.2984545 C17.5216364,15.3079091 17.5015455,15.3161818 17.4814545,15.3256364 C17.4483636,15.3386364 17.4164545,15.354 17.3845455,15.3693636 C17.3644545,15.3764545 17.3467273,15.3859091 17.3278182,15.3953636 C17.2840909,15.4166364 17.2403636,15.4390909 17.199,15.4615455 C17.1753636,15.4745455 17.1529091,15.4863636 17.1304545,15.4993636 C17.1056364,15.5123636 17.082,15.5265455 17.0571818,15.5407273 C17.0335455,15.5549091 17.0099091,15.5679091 16.9862727,15.5832727 C16.9555455,15.6021818 16.9248182,15.6210909 16.8940909,15.6411818 C16.8621818,15.6636364 16.8290909,15.6860909 16.7971818,15.7085455 C16.7794545,15.7203636 16.7617273,15.7333636 16.744,15.7463636 C16.7168182,15.7652727 16.6908182,15.7841818 16.666,15.8042727 C16.6518182,15.8149091 16.6388182,15.8243636 16.6258182,15.8361818 C16.5761818,15.874 16.5277273,15.9141818 16.4792727,15.9567273 C16.4698182,15.965 16.4591818,15.9732727 16.4497273,15.9827273 C16.4225455,16.0063636 16.3953636,16.0311818 16.3693636,16.056 C16.3599091,16.0642727 16.3504545,16.0725455 16.3421818,16.0808182 C16.2559091,16.1635455 16.1743636,16.2486364 16.0963636,16.3384545 C16.0916364,16.3443636 16.0857273,16.3502727 16.081,16.3573636 C15.9994545,16.4507273 15.9238182,16.5488182 15.8517273,16.6492727 C15.8481818,16.6528182 15.847,16.6563636 15.8434545,16.6599091 C15.7441818,16.8005455 15.6543636,16.9494545 15.574,17.1030909 C15.2939091,17.6408182 15.1343636,18.2518182 15.1343636,18.8994545 C15.1343636,21.0503636 16.8787273,22.7947273 19.0308182,22.7947273" id="Fill-2"></path>
                            <path d="M18.9090909,37.8181818 C29.3516364,37.8181818 37.8181818,29.3516364 37.8181818,18.9090909 C37.8181818,8.46536364 29.3516364,0 18.9090909,0 C8.46536364,0 0,8.46536364 0,18.9090909 C0,29.3516364 8.46536364,37.8181818 18.9090909,37.8181818 L18.9090909,37.8181818 Z M9.39072727,11.4364545 C9.39072727,10.3066364 10.3066364,9.39072727 11.4364545,9.39072727 L26.3793636,9.39072727 C27.5103636,9.39072727 28.4274545,10.3066364 28.4274545,11.4364545 L28.4274545,26.3805455 C28.4274545,27.5103636 27.5103636,28.4262727 26.3793636,28.4262727 L11.4364545,28.4262727 C10.3066364,28.4262727 9.39072727,27.5103636 9.39072727,26.3805455 L9.39072727,11.4364545 L9.39072727,11.4364545 Z" id="Fill-3"></path>
                            <path d="M12.9326364,26.2503636 L25.1266364,26.2503636 C25.8002727,26.2503636 26.3462727,25.7043636 26.3462727,25.0295455 L26.3462727,17.1042727 L24.6810909,17.1042727 C24.8607273,17.6703636 24.9588182,18.2730909 24.9588182,18.8994545 C24.9588182,22.1730909 22.3044545,24.8274545 19.0308182,24.8274545 C15.756,24.8274545 13.1028182,22.1730909 13.1028182,18.8994545 C13.1028182,18.2730909 13.1997273,17.6703636 13.3793636,17.1042727 L11.713,17.1042727 L11.713,25.0295455 C11.713,25.7043636 12.259,26.2503636 12.9326364,26.2503636" id="Fill-4"></path>
                        </g>
                    </g>
                </g>
            </g>
        </g>
    </g>
</svg>