<?xml version="1.0" encoding="UTF-8" standalone="no"?>
<svg width="17px" height="24px" viewBox="0 0 17 24" version="1.1" xmlns="http://www.w3.org/2000/svg" xmlns:xlink="http://www.w3.org/1999/xlink" xmlns:sketch="http://www.bohemiancoding.com/sketch/ns">
    <!-- Generator: bin/sketchtool 1.4 (305) - http://www.bohemiancoding.com/sketch -->
    <title>map marker</title>
    <desc>Created with bin/sketchtool.</desc>
    <defs></defs>
    <g id="Final-All" stroke="none" stroke-width="1" fill="none" fill-rule="evenodd" sketch:type="MSPage">
        <g id="Landing-Page" sketch:type="MSArtboardGroup" transform="translate(-503.000000, -1830.000000)" fill="#444B52">
            <g id="Recent-Events" sketch:type="MSLayerGroup" transform="translate(0.000000, 1297.000000)">
                <g id="Card-1" transform="translate(139.000000, 109.500000)" sketch:type="MSShapeGroup">
                    <g id="Additional-Info" transform="translate(32.000000, 422.000000)">
                        <g id="Location-Copy" transform="translate(332.000000, 1.000000)">
                            <g id="map-marker" transform="translate(0.000000, 1.000000)">
                                <path d="M11.140625,8.265625 C11.140625,6.68042187 9.85082812,5.390625 8.265625,5.390625 C6.68042187,5.390625 5.390625,6.68042187 5.390625,8.265625 C5.390625,9.85082812 6.68042187,11.140625 8.265625,11.140625 C9.85082812,11.140625 11.140625,9.85082812 11.140625,8.265625 L11.140625,8.265625 Z M6.828125,8.265625 C6.828125,7.47284375 7.47284375,6.828125 8.265625,6.828125 C9.05840625,6.828125 9.703125,7.47284375 9.703125,8.265625 C9.703125,9.05840625 9.05840625,9.703125 8.265625,9.703125 C7.47284375,9.703125 6.828125,9.05840625 6.828125,8.265625 L6.828125,8.265625 Z" id="Fill-1"></path>
                                <path d="M8.25340625,23 C8.4596875,23 8.65590625,22.9112344 8.79246875,22.7567031 C9.1094375,22.3969687 16.5567656,13.8866094 16.53125,8.27460937 C16.5104062,3.71198437 12.8027344,0 8.265625,0 C3.70767187,0 0,3.71342187 0,8.27784375 C0,13.8866094 7.39773437,22.3955312 7.71290625,22.7549062 C7.84946875,22.9105156 8.035625,22.9949687 8.25340625,23 L8.25340625,23 Z M8.265625,1.4375 C12.0135469,1.4375 15.0765,4.50764062 15.09375,8.2814375 C15.1131562,12.5303281 9.96151563,19.1065312 8.25520312,21.1668281 C6.55715625,19.1047344 1.4375,12.532125 1.4375,8.27784375 C1.4375,4.50620312 4.50045312,1.4375 8.265625,1.4375 L8.265625,1.4375 Z" id="Fill-2"></path>
                            </g>
                        </g>
                    </g>
                </g>
            </g>
        </g>
    </g>
</svg>