<?xml version="1.0" encoding="UTF-8" standalone="no"?>
<svg width="39px" height="40px" viewBox="0 0 39 40" version="1.1" xmlns="http://www.w3.org/2000/svg" xmlns:xlink="http://www.w3.org/1999/xlink" xmlns:sketch="http://www.bohemiancoding.com/sketch/ns">
    <!-- Generator: bin/sketchtool 1.4 (305) - http://www.bohemiancoding.com/sketch -->
    <title>Fill 6</title>
    <desc>Created with bin/sketchtool.</desc>
    <defs></defs>
    <g id="Homepage" stroke="none" stroke-width="1" fill="none" fill-rule="evenodd" sketch:type="MSPage">
        <g id="Landing-Page-3" sketch:type="MSArtboardGroup" transform="translate(-1122.000000, -3581.000000)" fill="#FFFFFF">
            <g id="Footer-Copy" sketch:type="MSLayerGroup" transform="translate(0.000000, 3409.000000)">
                <g id="Social-Icons" transform="translate(1053.000000, 172.838636)" sketch:type="MSShapeGroup">
                    <g id="Imported-Layers">
                        <path d="M88.4993906,39.0012188 C99.2698209,39.0012188 108,30.2698209 108,19.5006094 C108,8.73017907 99.2698209,0 88.4993906,0 C77.7301791,0 69,8.73017907 69,19.5006094 C69,30.2698209 77.7301791,39.0012188 88.4993906,39.0012188 L88.4993906,39.0012188 Z M83.8923716,24.7877121 C83.8923716,24.7877121 80.5224226,24.7218976 79.5510485,21.5786431 C79.5510485,21.5786431 81.2354136,21.7090534 81.5279227,21.3848558 C81.5279227,21.3848558 77.8983718,20.5097659 77.8654645,16.7181162 C77.8654645,16.7181162 78.967249,17.2690084 79.9715304,17.3019157 C79.9715304,17.3019157 76.4723898,14.7729304 78.5942998,10.9983437 C78.5942998,10.9983437 82.1275665,15.6809275 88.2678209,16.0051252 C88.2678209,16.0051252 87.4366074,13.2384762 89.9850933,11.1226601 C92.5360168,9.00440639 95.6890215,10.7984625 96.2935404,11.5967686 C96.2935404,11.5967686 98.0875965,11.3164474 99.3405106,10.4742648 C99.3405106,10.4742648 98.9309978,12.0915966 97.417263,13.0641895 C97.417263,13.0641895 99.1893809,12.8289634 100.009625,12.3536361 C100.009625,12.3536361 99.1455045,13.7357417 97.6561455,14.7948686 C97.6561455,14.7948686 98.2813838,20.6389575 93.2587581,25.4677959 C88.2361324,30.2966343 79.9715304,29.2911341 76.9903747,26.7645864 C76.9903747,26.7645864 81.0404075,27.2179756 83.8923716,24.7877121 L83.8923716,24.7877121 Z" id="Fill-6"></path>
                    </g>
                </g>
            </g>
        </g>
    </g>
</svg>